<svg width="99" height="101" viewBox="0 0 99 101" fill="none" xmlns="http://www.w3.org/2000/svg">
<path d="M2.17319 6H96.8268C98.0268 6 99 4.6569 99 3C99 1.3431 98.0268 0 96.8268 0H2.17319C0.973156 0 0 1.3431 0 3C0 4.6569 0.972938 6 2.17319 6Z" fill="white"/>
<path d="M96.8266 95H2.17319C0.973156 95 0 96.3431 0 98C0 99.6569 0.973156 101 2.17319 101H96.8268C98.0268 101 99 99.6569 99 98C99 96.3431 98.0268 95 96.8266 95Z" fill="white"/>
<path d="M96.8266 32H2.17319C0.973156 32 0 33.3431 0 35C0 36.6569 0.973156 38 2.17319 38H96.8268C98.0268 38 99 36.6569 99 35C99 33.3431 98.0268 32 96.8266 32Z" fill="white"/>
<path d="M96.8266 64H2.17319C0.973156 64 0 65.1193 0 66.5C0 67.8807 0.973156 69 2.17319 69H96.8268C98.0268 69 99 67.8807 99 66.5C99 65.1193 98.0268 64 96.8266 64Z" fill="white"/>
<path d="M41.4341 18.4028C41.4341 23.4017 45.5009 27.4688 50.5 27.4688C55.4991 27.4688 59.5659 23.4017 59.5659 18.4028C59.5659 13.404 55.4991 9.33691 50.5 9.33691C45.5009 9.33691 41.4341 13.4037 41.4341 18.4028ZM53.8549 18.4028C53.8549 20.2529 52.3498 21.7578 50.5 21.7578C48.6502 21.7578 47.1451 20.2526 47.1451 18.4028C47.1451 16.553 48.6502 15.0479 50.5 15.0479C52.3498 15.0479 53.8549 16.553 53.8549 18.4028Z" fill="white"/>
<path d="M59.5659 50.0989C59.5659 45.1 55.4991 41.033 50.5 41.033C45.5009 41.033 41.4341 45.0998 41.4341 50.0989C41.4341 55.098 45.5009 59.1648 50.5 59.1648C55.4991 59.1648 59.5659 55.0977 59.5659 50.0989ZM47.1451 50.0989C47.1451 48.2491 48.6502 46.744 50.5 46.744C52.3498 46.744 53.8549 48.2491 53.8549 50.0989C53.8549 51.949 52.3498 53.4538 50.5 53.4538C48.6502 53.4538 47.1451 51.9487 47.1451 50.0989Z" fill="white"/>
<path d="M59.5659 82.0804C59.5659 77.0816 55.4991 73.0145 50.5 73.0145C45.5009 73.0145 41.4341 77.0813 41.4341 82.0804C41.4341 87.0796 45.5009 91.1464 50.5 91.1464C55.4991 91.1464 59.5659 87.0793 59.5659 82.0804ZM47.1451 82.0804C47.1451 80.2307 48.6502 78.7255 50.5 78.7255C52.3498 78.7255 53.8549 80.2307 53.8549 82.0804C53.8549 83.9305 52.3498 85.4354 50.5 85.4354C48.6502 85.4354 47.1451 83.9302 47.1451 82.0804Z" fill="white"/>
</svg>
